{
	"patcher" : 	{
		"fileversion" : 1,
		"appversion" : 		{
			"major" : 7,
			"minor" : 3,
			"revision" : 4,
			"architecture" : "x86",
			"modernui" : 1
		}
,
		"rect" : [ 34.0, 88.0, 1852.0, 908.0 ],
		"bglocked" : 0,
		"openinpresentation" : 0,
		"default_fontsize" : 12.0,
		"default_fontface" : 0,
		"default_fontname" : "Arial",
		"gridonopen" : 1,
		"gridsize" : [ 15.0, 15.0 ],
		"gridsnaponopen" : 1,
		"objectsnaponopen" : 1,
		"statusbarvisible" : 2,
		"toolbarvisible" : 1,
		"lefttoolbarpinned" : 0,
		"toptoolbarpinned" : 0,
		"righttoolbarpinned" : 0,
		"bottomtoolbarpinned" : 0,
		"toolbars_unpinned_last_save" : 0,
		"tallnewobj" : 0,
		"boxanimatetime" : 200,
		"enablehscroll" : 1,
		"enablevscroll" : 1,
		"devicewidth" : 0.0,
		"description" : "",
		"digest" : "",
		"tags" : "",
		"style" : "",
		"subpatcher_template" : "",
		"boxes" : [ 			{
				"box" : 				{
					"id" : "obj-39",
					"maxclass" : "toggle",
					"numinlets" : 1,
					"numoutlets" : 1,
					"outlettype" : [ "int" ],
					"parameter_enable" : 0,
					"patching_rect" : [ 1.6, 38.800003, 24.0, 24.0 ],
					"presentation" : 1,
					"presentation_rect" : [ 550.300049, 205.949982, 24.0, 24.0 ],
					"style" : ""
				}

			}
, 			{
				"box" : 				{
					"id" : "obj-4",
					"maxclass" : "newobj",
					"numinlets" : 2,
					"numoutlets" : 1,
					"outlettype" : [ "signal" ],
					"patching_rect" : [ 41.600002, 66.400002, 41.0, 22.0 ],
					"style" : "",
					"text" : "gate~"
				}

			}
, 			{
				"box" : 				{
					"id" : "obj-135",
					"maxclass" : "comment",
					"numinlets" : 1,
					"numoutlets" : 0,
					"patching_rect" : [ 560.0, 183.0, 150.0, 20.0 ],
					"presentation" : 1,
					"presentation_rect" : [ 546.200073, 176.600006, 150.0, 20.0 ],
					"style" : "",
					"text" : "mic into karma"
				}

			}
, 			{
				"box" : 				{
					"id" : "obj-130",
					"maxclass" : "comment",
					"numinlets" : 1,
					"numoutlets" : 0,
					"patching_rect" : [ 398.510986, 78.000015, 150.0, 20.0 ],
					"presentation" : 1,
					"presentation_rect" : [ 550.300049, 128.600006, 150.0, 20.0 ],
					"style" : "",
					"text" : "pass samples into karma"
				}

			}
, 			{
				"box" : 				{
					"id" : "obj-127",
					"maxclass" : "toggle",
					"numinlets" : 1,
					"numoutlets" : 1,
					"outlettype" : [ "int" ],
					"parameter_enable" : 0,
					"patching_rect" : [ 398.510986, 105.899994, 24.0, 24.0 ],
					"presentation" : 1,
					"presentation_rect" : [ 550.300049, 150.600006, 24.0, 24.0 ],
					"style" : ""
				}

			}
, 			{
				"box" : 				{
					"id" : "obj-125",
					"maxclass" : "newobj",
					"numinlets" : 2,
					"numoutlets" : 1,
					"outlettype" : [ "signal" ],
					"patching_rect" : [ 333.0, 139.200012, 41.0, 22.0 ],
					"style" : "",
					"text" : "gate~"
				}

			}
, 			{
				"box" : 				{
					"id" : "obj-124",
					"maxclass" : "newobj",
					"numinlets" : 1,
					"numoutlets" : 0,
					"patching_rect" : [ 1481.800171, 664.0, 147.0, 22.0 ],
					"style" : "",
					"text" : "s play_greetings_traveller"
				}

			}
, 			{
				"box" : 				{
					"fontname" : "Arial",
					"fontsize" : 12.0,
					"id" : "obj-122",
					"maxclass" : "newobj",
					"numinlets" : 1,
					"numoutlets" : 1,
					"outlettype" : [ "" ],
					"patching_rect" : [ 1467.75, 554.200012, 146.0, 22.0 ],
					"style" : "",
					"text" : "if $f1 > 0.8 then 1. else 0."
				}

			}
, 			{
				"box" : 				{
					"id" : "obj-118",
					"maxclass" : "message",
					"numinlets" : 2,
					"numoutlets" : 1,
					"outlettype" : [ "" ],
					"patching_rect" : [ 1500.0, 498.0, 50.0, 22.0 ],
					"style" : "",
					"text" : "0."
				}

			}
, 			{
				"box" : 				{
					"id" : "obj-116",
					"maxclass" : "toggle",
					"numinlets" : 1,
					"numoutlets" : 1,
					"outlettype" : [ "int" ],
					"parameter_enable" : 0,
					"patching_rect" : [ 1487.0, 607.0, 24.0, 24.0 ],
					"style" : ""
				}

			}
, 			{
				"box" : 				{
					"id" : "obj-98",
					"maxclass" : "number",
					"numinlets" : 1,
					"numoutlets" : 2,
					"outlettype" : [ "", "bang" ],
					"parameter_enable" : 0,
					"patching_rect" : [ 1653.400024, 1001.0, 50.0, 22.0 ],
					"presentation" : 1,
					"presentation_rect" : [ 433.800049, 102.549995, 50.0, 22.0 ],
					"style" : ""
				}

			}
, 			{
				"box" : 				{
					"id" : "obj-96",
					"maxclass" : "comment",
					"numinlets" : 1,
					"numoutlets" : 0,
					"patching_rect" : [ 823.0, 355.0, 150.0, 20.0 ],
					"presentation" : 1,
					"presentation_rect" : [ 821.800049, 487.200073, 150.0, 20.0 ],
					"style" : "",
					"text" : "reverb"
				}

			}
, 			{
				"box" : 				{
					"id" : "obj-92",
					"maxclass" : "message",
					"numinlets" : 2,
					"numoutlets" : 1,
					"outlettype" : [ "" ],
					"patching_rect" : [ 403.833252, 793.600037, 85.0, 22.0 ],
					"style" : "",
					"text" : "write shimmer"
				}

			}
, 			{
				"box" : 				{
					"id" : "obj-91",
					"maxclass" : "message",
					"numinlets" : 2,
					"numoutlets" : 1,
					"outlettype" : [ "" ],
					"patching_rect" : [ 294.388733, 801.0, 84.0, 22.0 ],
					"style" : "",
					"text" : "read shimmer"
				}

			}
, 			{
				"box" : 				{
					"floatoutput" : 1,
					"id" : "obj-89",
					"maxclass" : "slider",
					"numinlets" : 1,
					"numoutlets" : 1,
					"outlettype" : [ "" ],
					"parameter_enable" : 0,
					"patching_rect" : [ 828.0, 377.0, 20.0, 140.0 ],
					"presentation" : 1,
					"presentation_rect" : [ 821.800049, 513.80011, 137.199951, 31.453308 ],
					"size" : 1.0,
					"style" : ""
				}

			}
, 			{
				"box" : 				{
					"id" : "obj-86",
					"maxclass" : "message",
					"numinlets" : 2,
					"numoutlets" : 1,
					"outlettype" : [ "" ],
					"patching_rect" : [ 823.0, 580.0, 65.0, 22.0 ],
					"style" : "",
					"text" : "wetDry $1"
				}

			}
, 			{
				"box" : 				{
					"autosave" : 1,
					"bgmode" : 0,
					"border" : 0,
					"clickthrough" : 0,
					"id" : "obj-84",
					"maxclass" : "newobj",
					"numinlets" : 2,
					"numoutlets" : 8,
					"offset" : [ 0.0, 0.0 ],
					"outlettype" : [ "signal", "signal", "", "list", "int", "", "", "" ],
					"patching_rect" : [ 209.600006, 845.0, 184.199997, 82.0 ],
					"presentation_rect" : [ 0.0, 0.0, 300.0, 100.0 ],
					"save" : [ "#N", "vst~", "loaduniqueid", 0, "ValhallaShimmer.dll", ";" ],
					"saved_attribute_attributes" : 					{
						"valueof" : 						{
							"parameter_invisible" : 1,
							"parameter_longname" : "vst~[2]",
							"parameter_shortname" : "vst~[2]",
							"parameter_type" : 3
						}

					}
,
					"saved_object_attributes" : 					{
						"annotation_name" : "",
						"parameter_enable" : 1
					}
,
					"snapshot" : 					{
						"filetype" : "C74Snapshot",
						"version" : 2,
						"minorversion" : 0,
						"name" : "snapshotlist",
						"origin" : "vst~",
						"type" : "list",
						"subtype" : "Undefined",
						"embed" : 1,
						"snapshot" : 						{
							"pluginname" : "ValhallaShimmer.dll",
							"plugindisplayname" : "ValhallaShimmer",
							"pluginsavedname" : "ValhallaShimmer",
							"pluginsaveduniqueid" : 0,
							"version" : 1,
							"isbank" : 0,
							"isbase64" : 1,
							"sliderorder" : [ 0, 1, 2, 3, 4, 5, 6, 7, 8, 9, 10, 11 ],
							"slidervisibility" : [ 1, 1, 1, 1, 1, 1, 1, 1, 1, 1, 1, 1 ],
							"blob" : "409.CMlaKA....fQPMDZ....ALGZsIG.A.P.....HHDagM1ZH8FakA...........................DPWVMjLgLU....OMkETLU0QI4zTEQEUI4zQSABbrU2Yo4lUkI2bo8la8HRLh.xX0Imbk4FcPI2amIWXs0iHvHBHvElbg0VYzUlbvziHvHBHvElbg0VYzUlbwziHwHBHvElbg0VYzUlbxziHv3BMy.CLv.CLvbiHf.WXxEVakQWYxMSOh.iK4DSNwjSL4TyMh.BbgIWXsUFckIGM8HBLtXiLv.CLv.CL0HBHvElbg0VYzUlb0ziHvHBHvElbg0VYzUlb1ziHv3RMy.iLvDyLwXiHf.WXxEVakQWYxcSOh.iKw.CLv.CLv.SLh.BbgIWXsUFckIGN8HBLtLCLv.CLv.SLxHBHvElbg0VYzUlb4ziHv3RMh.BbgIWXsUFckIWLvziHv3BNv.CLv.CLwHiHf.WXxEVakQWYxESL8HRLh.RcocUZjQGZ8HhM4PiHfTWZHUVZmgFc8HhL2TiHu3C..."
						}
,
						"snapshotlist" : 						{
							"current_snapshot" : 1,
							"entries" : [ 								{
									"filetype" : "C74Snapshot",
									"version" : 2,
									"minorversion" : 0,
									"name" : "ValhallaShimmer",
									"origin" : "ValhallaShimmer.dll",
									"type" : "VST",
									"subtype" : "AudioEffect",
									"embed" : 0,
									"fileref" : 									{
										"name" : "ValhallaShimmer",
										"filename" : "ValhallaShimmer.maxsnap",
										"filepath" : "~/Documents/Max 7/Snapshots",
										"filepos" : -1,
										"snapshotfileid" : "886aa9a38b2c771e9226336234a294bb"
									}

								}
, 								{
									"filetype" : "C74Snapshot",
									"version" : 2,
									"minorversion" : 0,
									"name" : "ValhallaShimmer",
									"origin" : "ValhallaShimmer.dll",
									"type" : "VST",
									"subtype" : "AudioEffect",
									"embed" : 0,
									"snapshot" : 									{
										"pluginname" : "ValhallaShimmer.dll",
										"plugindisplayname" : "ValhallaShimmer",
										"pluginsavedname" : "ValhallaShimmer",
										"pluginsaveduniqueid" : 0,
										"version" : 1,
										"isbank" : 0,
										"isbase64" : 1,
										"sliderorder" : [ 0, 1, 2, 3, 4, 5, 6, 7, 8, 9, 10, 11 ],
										"slidervisibility" : [ 1, 1, 1, 1, 1, 1, 1, 1, 1, 1, 1, 1 ],
										"blob" : "409.CMlaKA....fQPMDZ....ALGZsIG.A.P.....HHDagM1ZH8FakA...........................DPWVMjLgLU....OMkETLU0QI4zTEQEUI4zQSABbrU2Yo4lUkI2bo8la8HRLh.xX0Imbk4FcPI2amIWXs0iHvHBHvElbg0VYzUlbvziHvHBHvElbg0VYzUlbwziHwHBHvElbg0VYzUlbxziHv3BMy.CLv.CLvbiHf.WXxEVakQWYxMSOh.iK4DSNwjSL4TyMh.BbgIWXsUFckIGM8HBLtXiLv.CLv.CL0HBHvElbg0VYzUlb0ziHvHBHvElbg0VYzUlb1ziHv3RMy.iLvDyLwXiHf.WXxEVakQWYxcSOh.iKw.CLv.CLv.SLh.BbgIWXsUFckIGN8HBLtLCLv.CLv.SLxHBHvElbg0VYzUlb4ziHv3RMh.BbgIWXsUFckIWLvziHv3BNv.CLv.CLwHiHf.WXxEVakQWYxESL8HRLh.RcocUZjQGZ8HhM4PiHfTWZHUVZmgFc8HhL2TiHu3C..."
									}
,
									"fileref" : 									{
										"name" : "ValhallaShimmer",
										"filename" : "ValhallaShimmer.maxsnap",
										"filepath" : "~/Desktop/touch/lipp_performance_3/max/data",
										"filepos" : -1,
										"snapshotfileid" : "58ba20737da05be9bff8e4d2c0e284b5"
									}

								}
 ]
						}

					}
,
					"style" : "",
					"text" : "vst~ ValhallaShimmer.dll",
					"varname" : "vst~",
					"viewvisibility" : 1
				}

			}
, 			{
				"box" : 				{
					"id" : "obj-35",
					"maxclass" : "newobj",
					"numinlets" : 1,
					"numoutlets" : 1,
					"outlettype" : [ "signal" ],
					"patching_rect" : [ 294.388733, 956.0, 182.0, 22.0 ],
					"style" : "",
					"text" : "receive~ random_sample_audio"
				}

			}
, 			{
				"box" : 				{
					"id" : "obj-49",
					"maxclass" : "newobj",
					"numinlets" : 1,
					"numoutlets" : 0,
					"patching_rect" : [ 1381.800049, 498.0, 33.0, 22.0 ],
					"style" : "",
					"text" : "s s5"
				}

			}
, 			{
				"box" : 				{
					"id" : "obj-50",
					"maxclass" : "comment",
					"numinlets" : 1,
					"numoutlets" : 0,
					"patching_rect" : [ 1381.800049, 293.400024, 150.0, 20.0 ],
					"presentation" : 1,
					"presentation_rect" : [ 821.800049, 427.506775, 150.0, 20.0 ],
					"style" : "",
					"text" : "dysfunction2"
				}

			}
, 			{
				"box" : 				{
					"floatoutput" : 1,
					"id" : "obj-55",
					"maxclass" : "slider",
					"numinlets" : 1,
					"numoutlets" : 1,
					"outlettype" : [ "" ],
					"parameter_enable" : 0,
					"patching_rect" : [ 1400.250122, 318.599976, 20.0, 140.0 ],
					"presentation" : 1,
					"presentation_rect" : [ 821.800049, 455.000122, 132.0, 26.506739 ],
					"size" : 1.0,
					"style" : ""
				}

			}
, 			{
				"box" : 				{
					"id" : "obj-43",
					"maxclass" : "newobj",
					"numinlets" : 1,
					"numoutlets" : 0,
					"patching_rect" : [ 1351.5, 712.121033, 33.0, 22.0 ],
					"style" : "",
					"text" : "s s4"
				}

			}
, 			{
				"box" : 				{
					"id" : "obj-44",
					"maxclass" : "comment",
					"numinlets" : 1,
					"numoutlets" : 0,
					"patching_rect" : [ 1304.5, 514.868164, 150.0, 20.0 ],
					"presentation" : 1,
					"presentation_rect" : [ 821.800049, 361.196716, 150.0, 20.0 ],
					"style" : "",
					"text" : "dysfunction"
				}

			}
, 			{
				"box" : 				{
					"floatoutput" : 1,
					"id" : "obj-45",
					"maxclass" : "slider",
					"numinlets" : 1,
					"numoutlets" : 1,
					"outlettype" : [ "" ],
					"parameter_enable" : 0,
					"patching_rect" : [ 1358.0, 540.200012, 20.0, 140.0 ],
					"presentation" : 1,
					"presentation_rect" : [ 821.800049, 388.493378, 132.0, 26.506739 ],
					"size" : 1.0,
					"style" : ""
				}

			}
, 			{
				"box" : 				{
					"id" : "obj-41",
					"maxclass" : "comment",
					"numinlets" : 1,
					"numoutlets" : 0,
					"patching_rect" : [ 598.400024, 148.800003, 150.0, 20.0 ],
					"presentation" : 1,
					"presentation_rect" : [ 821.800049, 340.896698, 150.0, 20.0 ],
					"style" : "",
					"text" : "scene 3"
				}

			}
, 			{
				"box" : 				{
					"id" : "obj-46",
					"maxclass" : "message",
					"numinlets" : 2,
					"numoutlets" : 1,
					"outlettype" : [ "" ],
					"patching_rect" : [ 458.555542, 514.868164, 29.5, 22.0 ],
					"style" : "",
					"text" : "0"
				}

			}
, 			{
				"box" : 				{
					"fontname" : "Arial",
					"fontsize" : 12.0,
					"format" : 6,
					"id" : "obj-14",
					"maxclass" : "flonum",
					"maximum" : 1.0,
					"minimum" : 0.0,
					"numinlets" : 1,
					"numoutlets" : 2,
					"outlettype" : [ "", "bang" ],
					"parameter_enable" : 0,
					"patching_rect" : [ 56.254913, 219.458694, 50.0, 22.0 ],
					"style" : ""
				}

			}
, 			{
				"box" : 				{
					"id" : "obj-20",
					"maxclass" : "toggle",
					"numinlets" : 1,
					"numoutlets" : 1,
					"outlettype" : [ "int" ],
					"parameter_enable" : 0,
					"patching_rect" : [ 29.978058, 219.458694, 20.0, 20.0 ],
					"style" : ""
				}

			}
, 			{
				"box" : 				{
					"fontname" : "Arial",
					"fontsize" : 12.0,
					"id" : "obj-30",
					"maxclass" : "message",
					"numinlets" : 2,
					"numoutlets" : 1,
					"outlettype" : [ "" ],
					"patching_rect" : [ 29.978058, 249.790268, 70.0, 22.0 ],
					"style" : "",
					"text" : "overdub $1"
				}

			}
, 			{
				"box" : 				{
					"id" : "obj-34",
					"maxclass" : "newobj",
					"numinlets" : 1,
					"numoutlets" : 1,
					"outlettype" : [ "signal" ],
					"patching_rect" : [ 229.800003, 54.000015, 182.0, 22.0 ],
					"style" : "",
					"text" : "receive~ random_sample_audio"
				}

			}
, 			{
				"box" : 				{
					"id" : "obj-31",
					"maxclass" : "comment",
					"numinlets" : 1,
					"numoutlets" : 0,
					"patching_rect" : [ 910.0, 117.868195, 150.0, 20.0 ],
					"presentation" : 1,
					"presentation_rect" : [ 542.000061, 74.749992, 150.0, 20.0 ],
					"style" : "",
					"text" : "random sample"
				}

			}
, 			{
				"box" : 				{
					"id" : "obj-27",
					"maxclass" : "newobj",
					"numinlets" : 1,
					"numoutlets" : 0,
					"patching_rect" : [ 925.0, 281.0, 169.0, 22.0 ],
					"style" : "",
					"text" : "send~ random_sample_audio"
				}

			}
, 			{
				"box" : 				{
					"id" : "obj-26",
					"maxclass" : "toggle",
					"numinlets" : 1,
					"numoutlets" : 1,
					"outlettype" : [ "int" ],
					"parameter_enable" : 0,
					"patching_rect" : [ 908.388672, 138.268204, 24.0, 24.0 ],
					"presentation" : 1,
					"presentation_rect" : [ 550.300049, 102.749992, 24.0, 24.0 ],
					"style" : ""
				}

			}
, 			{
				"box" : 				{
					"id" : "obj-2",
					"maxclass" : "newobj",
					"numinlets" : 1,
					"numoutlets" : 1,
					"outlettype" : [ "signal" ],
					"patching_rect" : [ 764.5, 256.600006, 97.0, 22.0 ],
					"style" : "",
					"text" : "random_sample"
				}

			}
, 			{
				"box" : 				{
					"id" : "obj-228",
					"maxclass" : "newobj",
					"numinlets" : 1,
					"numoutlets" : 1,
					"outlettype" : [ "" ],
					"patching_rect" : [ 1603.199951, 333.919312, 72.0, 22.0 ],
					"style" : "",
					"text" : "loadmess 1"
				}

			}
, 			{
				"box" : 				{
					"id" : "obj-227",
					"maxclass" : "newobj",
					"numinlets" : 1,
					"numoutlets" : 0,
					"patching_rect" : [ 1692.0, 428.319366, 33.0, 22.0 ],
					"style" : "",
					"text" : "s b6"
				}

			}
, 			{
				"box" : 				{
					"id" : "obj-226",
					"maxclass" : "comment",
					"numinlets" : 1,
					"numoutlets" : 0,
					"patching_rect" : [ 1456.200073, 366.400024, 150.0, 20.0 ],
					"presentation" : 1,
					"presentation_rect" : [ 673.0, 498.88913, 150.0, 20.0 ],
					"style" : "",
					"text" : "background on"
				}

			}
, 			{
				"box" : 				{
					"id" : "obj-224",
					"maxclass" : "toggle",
					"numinlets" : 1,
					"numoutlets" : 1,
					"outlettype" : [ "int" ],
					"parameter_enable" : 0,
					"patching_rect" : [ 1682.199951, 384.21933, 24.0, 24.0 ],
					"presentation" : 1,
					"presentation_rect" : [ 684.000061, 522.000061, 24.0, 24.0 ],
					"style" : ""
				}

			}
, 			{
				"box" : 				{
					"id" : "obj-222",
					"maxclass" : "newobj",
					"numinlets" : 1,
					"numoutlets" : 0,
					"patching_rect" : [ 1066.788696, 688.800049, 69.0, 22.0 ],
					"style" : "",
					"text" : "s applause"
				}

			}
, 			{
				"box" : 				{
					"id" : "obj-221",
					"maxclass" : "newobj",
					"numinlets" : 1,
					"numoutlets" : 0,
					"patching_rect" : [ 1653.400024, 569.268188, 49.0, 22.0 ],
					"style" : "",
					"text" : "s laugh"
				}

			}
, 			{
				"box" : 				{
					"id" : "obj-219",
					"maxclass" : "comment",
					"numinlets" : 1,
					"numoutlets" : 0,
					"patching_rect" : [ 1070.400024, 590.800049, 150.0, 20.0 ],
					"presentation" : 1,
					"presentation_rect" : [ 729.799988, 284.900024, 62.399971, 20.0 ],
					"style" : "",
					"text" : "applause"
				}

			}
, 			{
				"box" : 				{
					"id" : "obj-220",
					"maxclass" : "toggle",
					"numinlets" : 1,
					"numoutlets" : 1,
					"outlettype" : [ "int" ],
					"parameter_enable" : 0,
					"patching_rect" : [ 1663.0, 514.868164, 24.0, 24.0 ],
					"presentation" : 1,
					"presentation_rect" : [ 673.0, 311.000031, 24.0, 24.0 ],
					"style" : ""
				}

			}
, 			{
				"box" : 				{
					"id" : "obj-218",
					"maxclass" : "comment",
					"numinlets" : 1,
					"numoutlets" : 0,
					"patching_rect" : [ 1663.0, 475.800018, 150.0, 20.0 ],
					"presentation" : 1,
					"presentation_rect" : [ 673.0, 287.400024, 44.399998, 20.0 ],
					"style" : "",
					"text" : "laugh"
				}

			}
, 			{
				"box" : 				{
					"id" : "obj-216",
					"maxclass" : "toggle",
					"numinlets" : 1,
					"numoutlets" : 1,
					"outlettype" : [ "int" ],
					"parameter_enable" : 0,
					"patching_rect" : [ 1066.788696, 623.200073, 24.0, 24.0 ],
					"presentation" : 1,
					"presentation_rect" : [ 729.799988, 313.700043, 24.0, 24.0 ],
					"style" : ""
				}

			}
, 			{
				"box" : 				{
					"id" : "obj-213",
					"maxclass" : "newobj",
					"numinlets" : 1,
					"numoutlets" : 0,
					"patching_rect" : [ 1160.400024, 687.200012, 33.0, 22.0 ],
					"style" : "",
					"text" : "s b4"
				}

			}
, 			{
				"box" : 				{
					"id" : "obj-212",
					"maxclass" : "toggle",
					"numinlets" : 1,
					"numoutlets" : 1,
					"outlettype" : [ "int" ],
					"parameter_enable" : 0,
					"patching_rect" : [ 1160.400024, 649.599976, 24.0, 24.0 ],
					"presentation" : 1,
					"presentation_rect" : [ 542.000061, 449.706848, 24.0, 24.0 ],
					"style" : ""
				}

			}
, 			{
				"box" : 				{
					"id" : "obj-210",
					"maxclass" : "comment",
					"numinlets" : 1,
					"numoutlets" : 0,
					"patching_rect" : [ 1156.0, 623.200073, 150.0, 20.0 ],
					"presentation" : 1,
					"presentation_rect" : [ 537.800049, 422.000122, 95.799973, 20.0 ],
					"style" : "",
					"text" : "noise transform"
				}

			}
, 			{
				"box" : 				{
					"id" : "obj-208",
					"maxclass" : "number",
					"numinlets" : 1,
					"numoutlets" : 2,
					"outlettype" : [ "", "bang" ],
					"parameter_enable" : 0,
					"patching_rect" : [ 1029.600098, 786.900024, 50.0, 22.0 ],
					"presentation" : 1,
					"presentation_rect" : [ 582.400085, 517.200073, 50.0, 22.0 ],
					"style" : ""
				}

			}
, 			{
				"box" : 				{
					"id" : "obj-206",
					"maxclass" : "comment",
					"numinlets" : 1,
					"numoutlets" : 0,
					"patching_rect" : [ 1456.200073, 389.599976, 150.0, 20.0 ],
					"presentation" : 1,
					"presentation_rect" : [ 542.000061, 480.80011, 150.0, 20.0 ],
					"style" : "",
					"text" : "auto clear"
				}

			}
, 			{
				"box" : 				{
					"id" : "obj-204",
					"maxclass" : "toggle",
					"numinlets" : 1,
					"numoutlets" : 1,
					"outlettype" : [ "int" ],
					"parameter_enable" : 0,
					"patching_rect" : [ 981.0, 778.900024, 24.0, 24.0 ],
					"presentation" : 1,
					"presentation_rect" : [ 542.000061, 506.800049, 32.400002, 32.400002 ],
					"style" : ""
				}

			}
, 			{
				"box" : 				{
					"id" : "obj-202",
					"maxclass" : "newobj",
					"numinlets" : 2,
					"numoutlets" : 1,
					"outlettype" : [ "bang" ],
					"patching_rect" : [ 974.0, 836.500061, 71.0, 22.0 ],
					"style" : "",
					"text" : "metro 1000"
				}

			}
, 			{
				"box" : 				{
					"id" : "obj-197",
					"maxclass" : "newobj",
					"numinlets" : 1,
					"numoutlets" : 1,
					"outlettype" : [ "int" ],
					"patching_rect" : [ 1381.800049, 984.849976, 24.0, 22.0 ],
					"style" : "",
					"text" : "t 0"
				}

			}
, 			{
				"box" : 				{
					"id" : "obj-198",
					"maxclass" : "newobj",
					"numinlets" : 1,
					"numoutlets" : 1,
					"outlettype" : [ "int" ],
					"patching_rect" : [ 1419.0, 984.849976, 24.0, 22.0 ],
					"style" : "",
					"text" : "t 1"
				}

			}
, 			{
				"box" : 				{
					"id" : "obj-199",
					"maxclass" : "newobj",
					"numinlets" : 2,
					"numoutlets" : 1,
					"outlettype" : [ "bang" ],
					"patching_rect" : [ 1381.800049, 948.049988, 56.0, 22.0 ],
					"style" : "",
					"text" : "delay 30"
				}

			}
, 			{
				"box" : 				{
					"id" : "obj-196",
					"maxclass" : "newobj",
					"numinlets" : 1,
					"numoutlets" : 1,
					"outlettype" : [ "int" ],
					"patching_rect" : [ 982.799988, 977.300049, 24.0, 22.0 ],
					"style" : "",
					"text" : "t 0"
				}

			}
, 			{
				"box" : 				{
					"id" : "obj-195",
					"maxclass" : "newobj",
					"numinlets" : 1,
					"numoutlets" : 1,
					"outlettype" : [ "int" ],
					"patching_rect" : [ 1044.0, 977.300049, 24.0, 22.0 ],
					"style" : "",
					"text" : "t 1"
				}

			}
, 			{
				"box" : 				{
					"id" : "obj-194",
					"maxclass" : "newobj",
					"numinlets" : 2,
					"numoutlets" : 1,
					"outlettype" : [ "bang" ],
					"patching_rect" : [ 982.799988, 953.300049, 56.0, 22.0 ],
					"style" : "",
					"text" : "delay 30"
				}

			}
, 			{
				"box" : 				{
					"id" : "obj-193",
					"maxclass" : "newobj",
					"numinlets" : 1,
					"numoutlets" : 0,
					"patching_rect" : [ 982.799988, 1045.300049, 33.0, 22.0 ],
					"style" : "",
					"text" : "s b3"
				}

			}
, 			{
				"box" : 				{
					"id" : "obj-189",
					"maxclass" : "button",
					"numinlets" : 1,
					"numoutlets" : 1,
					"outlettype" : [ "bang" ],
					"patching_rect" : [ 970.600037, 872.900024, 24.0, 24.0 ],
					"presentation" : 1,
					"presentation_rect" : [ 639.800049, 448.000061, 32.40004, 32.40004 ],
					"style" : ""
				}

			}
, 			{
				"box" : 				{
					"id" : "obj-183",
					"maxclass" : "comment",
					"numinlets" : 1,
					"numoutlets" : 0,
					"patching_rect" : [ 981.0, 912.100037, 150.0, 20.0 ],
					"presentation" : 1,
					"presentation_rect" : [ 635.400024, 422.000122, 98.0, 20.0 ],
					"style" : "",
					"text" : "clear feedback\n"
				}

			}
, 			{
				"box" : 				{
					"id" : "obj-181",
					"maxclass" : "newobj",
					"numinlets" : 1,
					"numoutlets" : 0,
					"patching_rect" : [ 1198.200073, 990.721008, 33.0, 22.0 ],
					"style" : "",
					"text" : "s s2"
				}

			}
, 			{
				"box" : 				{
					"id" : "obj-180",
					"maxclass" : "comment",
					"numinlets" : 1,
					"numoutlets" : 0,
					"patching_rect" : [ 1201.599976, 786.900024, 150.0, 20.0 ],
					"presentation" : 1,
					"presentation_rect" : [ 616.200073, 362.000122, 150.0, 20.0 ],
					"style" : "",
					"text" : "feedback level\n"
				}

			}
, 			{
				"box" : 				{
					"floatoutput" : 1,
					"id" : "obj-178",
					"maxclass" : "slider",
					"numinlets" : 1,
					"numoutlets" : 1,
					"outlettype" : [ "" ],
					"parameter_enable" : 0,
					"patching_rect" : [ 1204.700073, 818.799988, 20.0, 140.0 ],
					"presentation" : 1,
					"presentation_rect" : [ 616.200073, 388.000031, 132.0, 26.506739 ],
					"size" : 1.0,
					"style" : ""
				}

			}
, 			{
				"box" : 				{
					"id" : "obj-177",
					"maxclass" : "comment",
					"numinlets" : 1,
					"numoutlets" : 0,
					"patching_rect" : [ 1213.0, 759.200012, 150.0, 20.0 ],
					"presentation" : 1,
					"presentation_rect" : [ 537.800049, 366.000031, 70.799995, 20.0 ],
					"style" : "",
					"text" : "reload face"
				}

			}
, 			{
				"box" : 				{
					"id" : "obj-175",
					"maxclass" : "comment",
					"numinlets" : 1,
					"numoutlets" : 0,
					"patching_rect" : [ 1201.599976, 759.200012, 150.0, 20.0 ],
					"presentation" : 1,
					"presentation_rect" : [ 537.800049, 344.000031, 59.599976, 20.0 ],
					"style" : "",
					"text" : "scene 7"
				}

			}
, 			{
				"box" : 				{
					"id" : "obj-173",
					"maxclass" : "toggle",
					"numinlets" : 1,
					"numoutlets" : 1,
					"outlettype" : [ "int" ],
					"parameter_enable" : 0,
					"patching_rect" : [ 1313.5, 876.799988, 24.0, 24.0 ],
					"presentation" : 1,
					"presentation_rect" : [ 546.200073, 388.000031, 24.0, 24.0 ],
					"style" : ""
				}

			}
, 			{
				"box" : 				{
					"id" : "obj-168",
					"maxclass" : "newobj",
					"numinlets" : 1,
					"numoutlets" : 0,
					"patching_rect" : [ 1313.5, 923.999939, 33.0, 22.0 ],
					"style" : "",
					"text" : "s b1"
				}

			}
, 			{
				"box" : 				{
					"id" : "obj-167",
					"maxclass" : "newobj",
					"numinlets" : 1,
					"numoutlets" : 1,
					"outlettype" : [ "" ],
					"patching_rect" : [ 1481.800171, 888.0, 72.0, 22.0 ],
					"style" : "",
					"text" : "loadmess 1"
				}

			}
, 			{
				"box" : 				{
					"id" : "obj-166",
					"maxclass" : "newobj",
					"numinlets" : 1,
					"numoutlets" : 0,
					"patching_rect" : [ 1487.100098, 967.999939, 33.0, 22.0 ],
					"style" : "",
					"text" : "s b2"
				}

			}
, 			{
				"box" : 				{
					"id" : "obj-165",
					"maxclass" : "comment",
					"numinlets" : 1,
					"numoutlets" : 0,
					"patching_rect" : [ 1206.950073, 759.200012, 150.0, 20.0 ],
					"presentation" : 1,
					"presentation_rect" : [ 537.800049, 278.799988, 46.0, 20.0 ],
					"style" : "",
					"text" : "spine"
				}

			}
, 			{
				"box" : 				{
					"id" : "obj-161",
					"maxclass" : "comment",
					"numinlets" : 1,
					"numoutlets" : 0,
					"patching_rect" : [ 1200.550049, 756.000061, 150.0, 20.0 ],
					"presentation" : 1,
					"presentation_rect" : [ 537.800049, 253.479019, 82.199997, 20.0 ],
					"style" : "",
					"text" : "scene 4"
				}

			}
, 			{
				"box" : 				{
					"id" : "obj-157",
					"maxclass" : "toggle",
					"numinlets" : 1,
					"numoutlets" : 1,
					"outlettype" : [ "int" ],
					"parameter_enable" : 0,
					"patching_rect" : [ 1487.100098, 930.400024, 24.0, 24.0 ],
					"presentation" : 1,
					"presentation_rect" : [ 537.800049, 305.599976, 24.0, 24.0 ],
					"style" : ""
				}

			}
, 			{
				"box" : 				{
					"id" : "obj-154",
					"maxclass" : "newobj",
					"numinlets" : 2,
					"numoutlets" : 1,
					"outlettype" : [ "int" ],
					"patching_rect" : [ 1682.199951, 886.099976, 29.5, 22.0 ],
					"style" : "",
					"text" : "- 1"
				}

			}
, 			{
				"box" : 				{
					"id" : "obj-153",
					"maxclass" : "message",
					"numinlets" : 2,
					"numoutlets" : 1,
					"outlettype" : [ "" ],
					"patching_rect" : [ 1677.399902, 842.899963, 50.0, 22.0 ],
					"style" : "",
					"text" : "6"
				}

			}
, 			{
				"box" : 				{
					"id" : "obj-151",
					"maxclass" : "comment",
					"numinlets" : 1,
					"numoutlets" : 0,
					"patching_rect" : [ 1450.900024, 422.799988, 82.799995, 20.0 ],
					"presentation" : 1,
					"presentation_rect" : [ 352.310974, 137.149933, 70.0, 20.0 ],
					"style" : "",
					"text" : "prev"
				}

			}
, 			{
				"box" : 				{
					"id" : "obj-152",
					"maxclass" : "button",
					"numinlets" : 1,
					"numoutlets" : 1,
					"outlettype" : [ "bang" ],
					"patching_rect" : [ 1677.399902, 759.200012, 50.400002, 50.400002 ],
					"presentation" : 1,
					"presentation_rect" : [ 352.310974, 164.250031, 50.400002, 50.400002 ],
					"style" : ""
				}

			}
, 			{
				"box" : 				{
					"id" : "obj-150",
					"maxclass" : "newobj",
					"numinlets" : 2,
					"numoutlets" : 1,
					"outlettype" : [ "int" ],
					"patching_rect" : [ 1585.25, 876.799988, 29.5, 22.0 ],
					"style" : "",
					"text" : "+ 1"
				}

			}
, 			{
				"box" : 				{
					"id" : "obj-149",
					"maxclass" : "comment",
					"numinlets" : 1,
					"numoutlets" : 0,
					"patching_rect" : [ 1450.900024, 422.800049, 77.199997, 20.0 ],
					"presentation" : 1,
					"presentation_rect" : [ 281.800049, 137.149933, 66.799995, 20.0 ],
					"style" : "",
					"text" : "next"
				}

			}
, 			{
				"box" : 				{
					"id" : "obj-148",
					"maxclass" : "button",
					"numinlets" : 1,
					"numoutlets" : 1,
					"outlettype" : [ "bang" ],
					"patching_rect" : [ 1575.599976, 754.100037, 48.799999, 48.799999 ],
					"presentation" : 1,
					"presentation_rect" : [ 281.800049, 164.250031, 48.799999, 48.799999 ],
					"style" : ""
				}

			}
, 			{
				"box" : 				{
					"id" : "obj-145",
					"maxclass" : "message",
					"numinlets" : 2,
					"numoutlets" : 1,
					"outlettype" : [ "" ],
					"patching_rect" : [ 1569.200073, 827.0, 50.0, 22.0 ],
					"style" : "",
					"text" : "6"
				}

			}
, 			{
				"box" : 				{
					"id" : "obj-142",
					"maxclass" : "newobj",
					"numinlets" : 1,
					"numoutlets" : 0,
					"patching_rect" : [ 1415.100098, 1026.050049, 37.0, 22.0 ],
					"style" : "",
					"text" : "s rb1"
				}

			}
, 			{
				"box" : 				{
					"id" : "obj-129",
					"maxclass" : "newobj",
					"numinlets" : 0,
					"numoutlets" : 0,
					"patching_rect" : [ 756.200012, 209.600006, 122.0, 22.0 ],
					"style" : "",
					"text" : "trigger_audio.maxpat"
				}

			}
, 			{
				"box" : 				{
					"id" : "obj-123",
					"maxclass" : "newobj",
					"numinlets" : 1,
					"numoutlets" : 0,
					"patching_rect" : [ 1603.199951, 1026.050049, 33.0, 22.0 ],
					"style" : "",
					"text" : "s s1"
				}

			}
, 			{
				"box" : 				{
					"id" : "obj-114",
					"maxclass" : "comment",
					"numinlets" : 1,
					"numoutlets" : 0,
					"patching_rect" : [ 1450.900024, 422.800049, 150.0, 20.0 ],
					"presentation" : 1,
					"presentation_rect" : [ 281.800049, 74.749992, 150.0, 20.0 ],
					"style" : "",
					"text" : "scene select"
				}

			}
, 			{
				"box" : 				{
					"id" : "obj-110",
					"maxclass" : "slider",
					"numinlets" : 1,
					"numoutlets" : 1,
					"outlettype" : [ "" ],
					"parameter_enable" : 0,
					"patching_rect" : [ 1588.600098, 928.050049, 119.200005, 28.799986 ],
					"presentation" : 1,
					"presentation_rect" : [ 289.200043, 99.150002, 126.400002, 28.799986 ],
					"size" : 8.0,
					"style" : ""
				}

			}
, 			{
				"box" : 				{
					"id" : "obj-16",
					"maxclass" : "button",
					"numinlets" : 1,
					"numoutlets" : 1,
					"outlettype" : [ "bang" ],
					"patching_rect" : [ 1400.250122, 876.799988, 36.700005, 36.700005 ],
					"presentation" : 1,
					"presentation_rect" : [ 161.275131, 137.149933, 79.900002, 79.900002 ],
					"style" : ""
				}

			}
, 			{
				"box" : 				{
					"id" : "obj-48",
					"maxclass" : "comment",
					"numinlets" : 1,
					"numoutlets" : 0,
					"patching_rect" : [ 1569.200073, 724.0, 150.0, 20.0 ],
					"presentation" : 1,
					"presentation_rect" : [ 161.275131, 107.949989, 64.700005, 20.0 ],
					"style" : "",
					"text" : "ECCO"
				}

			}
, 			{
				"box" : 				{
					"id" : "obj-40",
					"maxclass" : "ezadc~",
					"numinlets" : 1,
					"numoutlets" : 2,
					"outlettype" : [ "signal", "signal" ],
					"patching_rect" : [ 24.0, -25.199997, 45.0, 45.0 ],
					"style" : ""
				}

			}
, 			{
				"box" : 				{
					"id" : "obj-5",
					"maxclass" : "newobj",
					"numinlets" : 0,
					"numoutlets" : 0,
					"patching_rect" : [ 756.200012, 148.800003, 100.0, 22.0 ],
					"style" : "",
					"text" : "osc_out.maxpat"
				}

			}
, 			{
				"box" : 				{
					"id" : "obj-23",
					"maxclass" : "message",
					"numinlets" : 2,
					"numoutlets" : 1,
					"outlettype" : [ "" ],
					"patching_rect" : [ 483.199982, 40.800003, 37.0, 22.0 ],
					"presentation" : 1,
					"presentation_rect" : [ 351.999969, 270.399994, 37.0, 22.0 ],
					"style" : "",
					"text" : "clear"
				}

			}
, 			{
				"box" : 				{
					"id" : "obj-19",
					"maxclass" : "newobj",
					"numinlets" : 1,
					"numoutlets" : 1,
					"outlettype" : [ "signal" ],
					"patching_rect" : [ 145.800003, 93.599998, 122.0, 22.0 ],
					"style" : "",
					"text" : "receive~ robot_voice"
				}

			}
, 			{
				"box" : 				{
					"id" : "obj-29",
					"maxclass" : "newobj",
					"numinlets" : 1,
					"numoutlets" : 1,
					"outlettype" : [ "" ],
					"patching_rect" : [ 209.600006, 597.599976, 106.0, 22.0 ],
					"style" : "",
					"text" : "loadmess target 0"
				}

			}
, 			{
				"box" : 				{
					"id" : "obj-28",
					"maxclass" : "message",
					"numinlets" : 2,
					"numoutlets" : 1,
					"outlettype" : [ "" ],
					"patching_rect" : [ 524.799988, 744.600037, 67.0, 22.0 ],
					"style" : "",
					"text" : "window $1"
				}

			}
, 			{
				"box" : 				{
					"id" : "obj-25",
					"maxclass" : "newobj",
					"numinlets" : 2,
					"numoutlets" : 1,
					"outlettype" : [ "float" ],
					"patching_rect" : [ 532.277771, 712.800049, 31.0, 22.0 ],
					"style" : "",
					"text" : "!- 0."
				}

			}
, 			{
				"box" : 				{
					"id" : "obj-24",
					"maxclass" : "message",
					"numinlets" : 2,
					"numoutlets" : 1,
					"outlettype" : [ "" ],
					"patching_rect" : [ 386.333252, 704.000061, 69.0, 22.0 ],
					"style" : "",
					"text" : "position $1"
				}

			}
, 			{
				"box" : 				{
					"floatoutput" : 1,
					"id" : "obj-22",
					"maxclass" : "rslider",
					"numinlets" : 2,
					"numoutlets" : 2,
					"outlettype" : [ "", "" ],
					"parameter_enable" : 0,
					"patching_rect" : [ 391.510986, 577.299988, 256.0, 27.399973 ],
					"presentation" : 1,
					"presentation_rect" : [ 173.800018, 498.88913, 333.000031, 27.999973 ],
					"size" : 1.0,
					"style" : ""
				}

			}
, 			{
				"box" : 				{
					"buffername" : "kbuffer",
					"id" : "obj-21",
					"maxclass" : "waveform~",
					"numinlets" : 5,
					"numoutlets" : 6,
					"outlettype" : [ "float", "float", "float", "float", "list", "" ],
					"patching_rect" : [ 391.510986, 618.400024, 256.0, 64.0 ],
					"style" : ""
				}

			}
, 			{
				"box" : 				{
					"id" : "obj-18",
					"maxclass" : "newobj",
					"numinlets" : 1,
					"numoutlets" : 1,
					"outlettype" : [ "" ],
					"patching_rect" : [ 90.800056, 597.599976, 103.0, 22.0 ],
					"style" : "",
					"text" : "prepend midinote"
				}

			}
, 			{
				"box" : 				{
					"id" : "obj-17",
					"maxclass" : "newobj",
					"numinlets" : 2,
					"numoutlets" : 1,
					"outlettype" : [ "" ],
					"patching_rect" : [ 95.199989, 551.200073, 48.0, 22.0 ],
					"style" : "",
					"text" : "pack i i"
				}

			}
, 			{
				"box" : 				{
					"id" : "obj-15",
					"maxclass" : "message",
					"numinlets" : 2,
					"numoutlets" : 1,
					"outlettype" : [ "" ],
					"patching_rect" : [ 90.800056, 428.800018, 36.0, 22.0 ],
					"style" : "",
					"text" : "flush"
				}

			}
, 			{
				"box" : 				{
					"id" : "obj-13",
					"maxclass" : "kslider",
					"mode" : 1,
					"numinlets" : 2,
					"numoutlets" : 2,
					"outlettype" : [ "int", "int" ],
					"parameter_enable" : 0,
					"patching_rect" : [ 41.600002, 467.800018, 336.0, 53.0 ],
					"presentation" : 1,
					"presentation_rect" : [ 170.800049, 311.000031, 336.0, 53.0 ],
					"style" : ""
				}

			}
, 			{
				"box" : 				{
					"id" : "obj-11",
					"maxclass" : "ezdac~",
					"numinlets" : 2,
					"numoutlets" : 0,
					"patching_rect" : [ 119.800056, 1087.0, 45.0, 45.0 ],
					"style" : ""
				}

			}
, 			{
				"box" : 				{
					"id" : "obj-10",
					"maxclass" : "newobj",
					"numinlets" : 2,
					"numoutlets" : 1,
					"outlettype" : [ "signal" ],
					"patching_rect" : [ 107.410988, 679.0, 187.0, 22.0 ],
					"style" : "",
					"text" : "poly~ karmapoly 8 @args kbuffer"
				}

			}
, 			{
				"box" : 				{
					"id" : "obj-9",
					"maxclass" : "message",
					"numinlets" : 2,
					"numoutlets" : 1,
					"outlettype" : [ "" ],
					"patching_rect" : [ 41.600002, 174.400009, 33.0, 22.0 ],
					"presentation" : 1,
					"presentation_rect" : [ 228.400055, 270.399994, 33.0, 22.0 ],
					"style" : "",
					"text" : "stop"
				}

			}
, 			{
				"box" : 				{
					"id" : "obj-8",
					"maxclass" : "message",
					"numinlets" : 2,
					"numoutlets" : 1,
					"outlettype" : [ "" ],
					"patching_rect" : [ 36.0, 123.200005, 33.0, 22.0 ],
					"presentation" : 1,
					"presentation_rect" : [ 169.910995, 270.399994, 33.0, 22.0 ],
					"style" : "",
					"text" : "play"
				}

			}
, 			{
				"box" : 				{
					"id" : "obj-7",
					"maxclass" : "message",
					"numinlets" : 2,
					"numoutlets" : 1,
					"outlettype" : [ "" ],
					"patching_rect" : [ 81.410988, 105.899994, 45.0, 22.0 ],
					"presentation" : 1,
					"presentation_rect" : [ 289.200043, 270.399994, 45.0, 22.0 ],
					"style" : "",
					"text" : "record"
				}

			}
, 			{
				"box" : 				{
					"fontname" : "Arial",
					"fontsize" : 12.0,
					"format" : 6,
					"id" : "obj-54",
					"maxclass" : "flonum",
					"numinlets" : 1,
					"numoutlets" : 2,
					"outlettype" : [ "", "bang" ],
					"parameter_enable" : 0,
					"patching_rect" : [ 568.000061, 249.479019, 50.0, 22.0 ],
					"style" : ""
				}

			}
, 			{
				"box" : 				{
					"fontname" : "Arial",
					"fontsize" : 12.0,
					"format" : 6,
					"id" : "obj-53",
					"maxclass" : "flonum",
					"numinlets" : 1,
					"numoutlets" : 2,
					"outlettype" : [ "", "bang" ],
					"parameter_enable" : 0,
					"patching_rect" : [ 513.277771, 249.479019, 50.0, 22.0 ],
					"style" : ""
				}

			}
, 			{
				"box" : 				{
					"fontname" : "Arial",
					"fontsize" : 12.0,
					"format" : 6,
					"id" : "obj-52",
					"maxclass" : "flonum",
					"numinlets" : 1,
					"numoutlets" : 2,
					"outlettype" : [ "", "bang" ],
					"parameter_enable" : 0,
					"patching_rect" : [ 458.555542, 249.479019, 50.0, 22.0 ],
					"style" : ""
				}

			}
, 			{
				"box" : 				{
					"fontname" : "Arial",
					"fontsize" : 12.0,
					"format" : 6,
					"id" : "obj-51",
					"maxclass" : "flonum",
					"numinlets" : 1,
					"numoutlets" : 2,
					"outlettype" : [ "", "bang" ],
					"parameter_enable" : 0,
					"patching_rect" : [ 294.388733, 249.479019, 50.0, 22.0 ],
					"style" : ""
				}

			}
, 			{
				"box" : 				{
					"bgcolor" : [ 0.75, 0.75, 0.75, 1.0 ],
					"bgoncolor" : [ 0.662639, 0.263952, 0.677225, 1.0 ],
					"id" : "obj-36",
					"ignoreclick" : 1,
					"legacytextcolor" : 1,
					"maxclass" : "textbutton",
					"mode" : 1,
					"numinlets" : 1,
					"numoutlets" : 3,
					"outlettype" : [ "", "", "int" ],
					"parameter_enable" : 0,
					"patching_rect" : [ 403.833252, 249.479019, 34.0, 20.0 ],
					"presentation" : 1,
					"presentation_rect" : [ 289.200043, 239.079025, 34.0, 20.0 ],
					"style" : "",
					"text" : "rec",
					"textcolor" : [ 0.15, 0.15, 0.15, 1.0 ],
					"texton" : "rec",
					"textoncolor" : [ 1.0, 1.0, 1.0, 1.0 ],
					"textovercolor" : [ 0.1, 0.1, 0.1, 1.0 ],
					"usebgoncolor" : 1,
					"usetextovercolor" : 1
				}

			}
, 			{
				"box" : 				{
					"bgcolor" : [ 0.75, 0.75, 0.75, 1.0 ],
					"bgoncolor" : [ 0.662639, 0.263952, 0.677225, 1.0 ],
					"id" : "obj-33",
					"ignoreclick" : 1,
					"legacytextcolor" : 1,
					"maxclass" : "textbutton",
					"mode" : 1,
					"numinlets" : 1,
					"numoutlets" : 3,
					"outlettype" : [ "", "", "int" ],
					"parameter_enable" : 0,
					"patching_rect" : [ 349.110992, 249.479019, 34.0, 20.0 ],
					"presentation" : 1,
					"presentation_rect" : [ 169.910995, 239.079025, 34.0, 20.0 ],
					"style" : "",
					"text" : "play",
					"textcolor" : [ 0.15, 0.15, 0.15, 1.0 ],
					"texton" : "play",
					"textoncolor" : [ 1.0, 1.0, 1.0, 1.0 ],
					"textovercolor" : [ 0.1, 0.1, 0.1, 1.0 ],
					"usebgoncolor" : 1,
					"usetextovercolor" : 1
				}

			}
, 			{
				"box" : 				{
					"bgcolor" : [ 1.0, 1.0, 1.0, 0.0 ],
					"id" : "obj-32",
					"maxclass" : "multislider",
					"numinlets" : 1,
					"numoutlets" : 2,
					"orientation" : 0,
					"outlettype" : [ "", "" ],
					"parameter_enable" : 0,
					"patching_rect" : [ 294.388733, 285.731812, 333.000031, 114.0 ],
					"presentation" : 1,
					"presentation_rect" : [ 174.800018, 372.131805, 333.000031, 114.0 ],
					"setminmax" : [ 0.0, 1.0 ],
					"slidercolor" : [ 0.501961, 0.501961, 0.501961, 0.4 ],
					"style" : ""
				}

			}
, 			{
				"box" : 				{
					"bgcolor" : [ 0.501961, 0.501961, 0.501961, 0.0 ],
					"bordercolor" : [ 0.501961, 0.501961, 0.501961, 0.0 ],
					"fgcolor" : [ 0.501961, 0.501961, 0.501961, 0.4 ],
					"floatoutput" : 1,
					"id" : "obj-38",
					"maxclass" : "rslider",
					"numinlets" : 2,
					"numoutlets" : 2,
					"outlettype" : [ "", "" ],
					"parameter_enable" : 0,
					"patching_rect" : [ 294.388733, 285.731812, 337.0, 118.375 ],
					"presentation" : 1,
					"presentation_rect" : [ 173.800018, 372.131805, 337.0, 118.375 ],
					"size" : 1.0,
					"style" : ""
				}

			}
, 			{
				"box" : 				{
					"bgcolor" : [ 0.501961, 0.501961, 0.501961, 0.0 ],
					"bordercolor" : [ 0.501961, 0.501961, 0.501961, 0.0 ],
					"fgcolor" : [ 0.501961, 0.501961, 0.501961, 0.4 ],
					"floatoutput" : 1,
					"id" : "obj-42",
					"maxclass" : "rslider",
					"numinlets" : 2,
					"numoutlets" : 2,
					"outlettype" : [ "", "" ],
					"parameter_enable" : 0,
					"patching_rect" : [ 294.388733, 285.731812, 337.0, 118.375 ],
					"presentation" : 1,
					"presentation_rect" : [ 173.800018, 372.131805, 337.0, 118.375 ],
					"size" : 1.0,
					"style" : ""
				}

			}
, 			{
				"box" : 				{
					"fontname" : "Arial",
					"fontsize" : 12.0,
					"id" : "obj-12",
					"maxclass" : "newobj",
					"numinlets" : 1,
					"numoutlets" : 6,
					"outlettype" : [ "float", "int", "int", "float", "float", "float" ],
					"patching_rect" : [ 294.388733, 219.458694, 292.611328, 22.0 ],
					"style" : "",
					"text" : "unpack f i i f f f"
				}

			}
, 			{
				"box" : 				{
					"attr_bpm" : 133.990005,
					"bgcolor" : [ 0.0, 0.0, 0.0, 1.0 ],
					"buffername" : "kbuffer",
					"grid" : 0.0,
					"gridcolor" : [ 0.392, 0.392, 0.392, 1.0 ],
					"id" : "obj-72",
					"ignoreclick" : 1,
					"labels" : 0,
					"maxclass" : "waveform~",
					"numinlets" : 5,
					"numoutlets" : 6,
					"outlettype" : [ "float", "float", "float", "float", "list", "" ],
					"patching_rect" : [ 295.388733, 285.731812, 333.0, 114.0 ],
					"presentation" : 1,
					"presentation_rect" : [ 174.800018, 372.131805, 333.0, 114.0 ],
					"ruler" : 0,
					"selectioncolor" : [ 0.741176, 0.184314, 0.756863, 0.0 ],
					"style" : "",
					"vticks" : 0,
					"waveformcolor" : [ 0.662639, 0.263952, 0.677225, 1.0 ]
				}

			}
, 			{
				"box" : 				{
					"id" : "obj-6",
					"maxclass" : "newobj",
					"numinlets" : 1,
					"numoutlets" : 1,
					"outlettype" : [ "signal" ],
					"patching_rect" : [ 229.800003, 139.200012, 43.0, 22.0 ],
					"style" : "",
					"text" : "sig~ 1"
				}

			}
, 			{
				"box" : 				{
					"id" : "obj-3",
					"maxclass" : "newobj",
					"numinlets" : 2,
					"numoutlets" : 2,
					"outlettype" : [ "signal", "list" ],
					"patching_rect" : [ 161.300003, 196.199997, 91.0, 22.0 ],
					"style" : "",
					"text" : "karma~ kbuffer"
				}

			}
, 			{
				"box" : 				{
					"id" : "obj-1",
					"maxclass" : "newobj",
					"numinlets" : 1,
					"numoutlets" : 2,
					"outlettype" : [ "float", "bang" ],
					"patching_rect" : [ 483.199982, 105.899994, 118.0, 22.0 ],
					"style" : "",
					"text" : "buffer~ kbuffer 5000"
				}

			}
, 			{
				"box" : 				{
					"angle" : 270.0,
					"grad1" : [ 0.466667, 0.254902, 0.607843, 1.0 ],
					"grad2" : [ 0.466667, 0.254902, 0.607843, 1.0 ],
					"id" : "obj-143",
					"maxclass" : "panel",
					"mode" : 1,
					"numinlets" : 1,
					"numoutlets" : 0,
					"patching_rect" : [ 1789.0, 1036.099976, 23.999998, 21.599998 ],
					"presentation" : 1,
					"presentation_rect" : [ 152.700027, 232.000015, 375.200012, 320.0 ],
					"proportion" : 0.39,
					"style" : ""
				}

			}
, 			{
				"box" : 				{
					"angle" : 270.0,
					"grad1" : [ 0.317647, 0.654902, 0.976471, 1.0 ],
					"grad2" : [ 0.317647, 0.654902, 0.976471, 1.0 ],
					"id" : "obj-156",
					"maxclass" : "panel",
					"mode" : 1,
					"numinlets" : 1,
					"numoutlets" : 0,
					"patching_rect" : [ 1793.800049, 1038.550049, 19.199999, 16.700005 ],
					"presentation" : 1,
					"presentation_rect" : [ 267.399994, 72.349983, 259.199982, 157.600006 ],
					"proportion" : 0.39,
					"style" : ""
				}

			}
, 			{
				"box" : 				{
					"angle" : 270.0,
					"grad1" : [ 0.960784, 0.827451, 0.156863, 1.0 ],
					"grad2" : [ 0.960784, 0.827451, 0.156863, 1.0 ],
					"id" : "obj-214",
					"maxclass" : "panel",
					"mode" : 1,
					"numinlets" : 1,
					"numoutlets" : 0,
					"patching_rect" : [ 1789.0, 1036.099976, 31.199999, 19.999998 ],
					"presentation" : 1,
					"presentation_rect" : [ 537.800049, 344.800018, 262.399994, 207.199997 ],
					"proportion" : 0.39,
					"style" : ""
				}

			}
 ],
		"lines" : [ 			{
				"patchline" : 				{
					"destination" : [ "obj-84", 0 ],
					"source" : [ "obj-10", 0 ]
				}

			}
, 			{
				"patchline" : 				{
					"destination" : [ "obj-123", 0 ],
					"order" : 3,
					"source" : [ "obj-110", 0 ]
				}

			}
, 			{
				"patchline" : 				{
					"destination" : [ "obj-145", 1 ],
					"order" : 2,
					"source" : [ "obj-110", 0 ]
				}

			}
, 			{
				"patchline" : 				{
					"destination" : [ "obj-153", 1 ],
					"order" : 0,
					"source" : [ "obj-110", 0 ]
				}

			}
, 			{
				"patchline" : 				{
					"destination" : [ "obj-98", 0 ],
					"order" : 1,
					"source" : [ "obj-110", 0 ]
				}

			}
, 			{
				"patchline" : 				{
					"destination" : [ "obj-124", 0 ],
					"source" : [ "obj-116", 0 ]
				}

			}
, 			{
				"patchline" : 				{
					"destination" : [ "obj-33", 0 ],
					"source" : [ "obj-12", 1 ]
				}

			}
, 			{
				"patchline" : 				{
					"destination" : [ "obj-36", 0 ],
					"source" : [ "obj-12", 2 ]
				}

			}
, 			{
				"patchline" : 				{
					"destination" : [ "obj-51", 0 ],
					"source" : [ "obj-12", 0 ]
				}

			}
, 			{
				"patchline" : 				{
					"destination" : [ "obj-52", 0 ],
					"source" : [ "obj-12", 3 ]
				}

			}
, 			{
				"patchline" : 				{
					"destination" : [ "obj-53", 0 ],
					"source" : [ "obj-12", 4 ]
				}

			}
, 			{
				"patchline" : 				{
					"destination" : [ "obj-54", 0 ],
					"source" : [ "obj-12", 5 ]
				}

			}
, 			{
				"patchline" : 				{
					"destination" : [ "obj-116", 0 ],
					"source" : [ "obj-122", 0 ]
				}

			}
, 			{
				"patchline" : 				{
					"destination" : [ "obj-3", 0 ],
					"source" : [ "obj-125", 0 ]
				}

			}
, 			{
				"patchline" : 				{
					"destination" : [ "obj-125", 0 ],
					"source" : [ "obj-127", 0 ]
				}

			}
, 			{
				"patchline" : 				{
					"destination" : [ "obj-17", 1 ],
					"source" : [ "obj-13", 1 ]
				}

			}
, 			{
				"patchline" : 				{
					"destination" : [ "obj-17", 0 ],
					"source" : [ "obj-13", 0 ]
				}

			}
, 			{
				"patchline" : 				{
					"destination" : [ "obj-30", 0 ],
					"midpoints" : [ 65.754913, 244.124466, 39.478058, 244.124466 ],
					"source" : [ "obj-14", 0 ]
				}

			}
, 			{
				"patchline" : 				{
					"destination" : [ "obj-150", 0 ],
					"source" : [ "obj-145", 0 ]
				}

			}
, 			{
				"patchline" : 				{
					"destination" : [ "obj-145", 0 ],
					"source" : [ "obj-148", 0 ]
				}

			}
, 			{
				"patchline" : 				{
					"destination" : [ "obj-13", 0 ],
					"source" : [ "obj-15", 0 ]
				}

			}
, 			{
				"patchline" : 				{
					"destination" : [ "obj-110", 0 ],
					"source" : [ "obj-150", 0 ]
				}

			}
, 			{
				"patchline" : 				{
					"destination" : [ "obj-153", 0 ],
					"source" : [ "obj-152", 0 ]
				}

			}
, 			{
				"patchline" : 				{
					"destination" : [ "obj-154", 0 ],
					"source" : [ "obj-153", 0 ]
				}

			}
, 			{
				"patchline" : 				{
					"destination" : [ "obj-110", 0 ],
					"source" : [ "obj-154", 0 ]
				}

			}
, 			{
				"patchline" : 				{
					"destination" : [ "obj-166", 0 ],
					"source" : [ "obj-157", 0 ]
				}

			}
, 			{
				"patchline" : 				{
					"destination" : [ "obj-198", 0 ],
					"order" : 0,
					"source" : [ "obj-16", 0 ]
				}

			}
, 			{
				"patchline" : 				{
					"destination" : [ "obj-199", 0 ],
					"order" : 1,
					"source" : [ "obj-16", 0 ]
				}

			}
, 			{
				"patchline" : 				{
					"destination" : [ "obj-157", 0 ],
					"source" : [ "obj-167", 0 ]
				}

			}
, 			{
				"patchline" : 				{
					"destination" : [ "obj-18", 0 ],
					"source" : [ "obj-17", 0 ]
				}

			}
, 			{
				"patchline" : 				{
					"destination" : [ "obj-168", 0 ],
					"source" : [ "obj-173", 0 ]
				}

			}
, 			{
				"patchline" : 				{
					"destination" : [ "obj-181", 0 ],
					"source" : [ "obj-178", 0 ]
				}

			}
, 			{
				"patchline" : 				{
					"destination" : [ "obj-10", 0 ],
					"source" : [ "obj-18", 0 ]
				}

			}
, 			{
				"patchline" : 				{
					"destination" : [ "obj-194", 0 ],
					"order" : 1,
					"source" : [ "obj-189", 0 ]
				}

			}
, 			{
				"patchline" : 				{
					"destination" : [ "obj-195", 0 ],
					"order" : 0,
					"source" : [ "obj-189", 0 ]
				}

			}
, 			{
				"patchline" : 				{
					"destination" : [ "obj-3", 0 ],
					"source" : [ "obj-19", 0 ]
				}

			}
, 			{
				"patchline" : 				{
					"destination" : [ "obj-196", 0 ],
					"source" : [ "obj-194", 0 ]
				}

			}
, 			{
				"patchline" : 				{
					"destination" : [ "obj-193", 0 ],
					"source" : [ "obj-195", 0 ]
				}

			}
, 			{
				"patchline" : 				{
					"destination" : [ "obj-193", 0 ],
					"source" : [ "obj-196", 0 ]
				}

			}
, 			{
				"patchline" : 				{
					"destination" : [ "obj-142", 0 ],
					"source" : [ "obj-197", 0 ]
				}

			}
, 			{
				"patchline" : 				{
					"destination" : [ "obj-142", 0 ],
					"source" : [ "obj-198", 0 ]
				}

			}
, 			{
				"patchline" : 				{
					"destination" : [ "obj-197", 0 ],
					"source" : [ "obj-199", 0 ]
				}

			}
, 			{
				"patchline" : 				{
					"destination" : [ "obj-27", 0 ],
					"source" : [ "obj-2", 0 ]
				}

			}
, 			{
				"patchline" : 				{
					"destination" : [ "obj-30", 0 ],
					"source" : [ "obj-20", 0 ]
				}

			}
, 			{
				"patchline" : 				{
					"destination" : [ "obj-189", 0 ],
					"source" : [ "obj-202", 0 ]
				}

			}
, 			{
				"patchline" : 				{
					"destination" : [ "obj-202", 0 ],
					"source" : [ "obj-204", 0 ]
				}

			}
, 			{
				"patchline" : 				{
					"destination" : [ "obj-202", 1 ],
					"source" : [ "obj-208", 0 ]
				}

			}
, 			{
				"patchline" : 				{
					"destination" : [ "obj-213", 0 ],
					"source" : [ "obj-212", 0 ]
				}

			}
, 			{
				"patchline" : 				{
					"destination" : [ "obj-222", 0 ],
					"source" : [ "obj-216", 0 ]
				}

			}
, 			{
				"patchline" : 				{
					"destination" : [ "obj-24", 0 ],
					"order" : 1,
					"source" : [ "obj-22", 0 ]
				}

			}
, 			{
				"patchline" : 				{
					"destination" : [ "obj-25", 1 ],
					"source" : [ "obj-22", 1 ]
				}

			}
, 			{
				"patchline" : 				{
					"destination" : [ "obj-25", 0 ],
					"order" : 0,
					"source" : [ "obj-22", 0 ]
				}

			}
, 			{
				"patchline" : 				{
					"destination" : [ "obj-221", 0 ],
					"source" : [ "obj-220", 0 ]
				}

			}
, 			{
				"patchline" : 				{
					"destination" : [ "obj-227", 0 ],
					"source" : [ "obj-224", 0 ]
				}

			}
, 			{
				"patchline" : 				{
					"destination" : [ "obj-224", 0 ],
					"source" : [ "obj-228", 0 ]
				}

			}
, 			{
				"patchline" : 				{
					"destination" : [ "obj-1", 0 ],
					"source" : [ "obj-23", 0 ]
				}

			}
, 			{
				"patchline" : 				{
					"destination" : [ "obj-10", 1 ],
					"source" : [ "obj-24", 0 ]
				}

			}
, 			{
				"patchline" : 				{
					"destination" : [ "obj-28", 0 ],
					"source" : [ "obj-25", 0 ]
				}

			}
, 			{
				"patchline" : 				{
					"destination" : [ "obj-2", 0 ],
					"source" : [ "obj-26", 0 ]
				}

			}
, 			{
				"patchline" : 				{
					"destination" : [ "obj-10", 1 ],
					"source" : [ "obj-28", 0 ]
				}

			}
, 			{
				"patchline" : 				{
					"destination" : [ "obj-10", 0 ],
					"source" : [ "obj-29", 0 ]
				}

			}
, 			{
				"patchline" : 				{
					"destination" : [ "obj-12", 0 ],
					"source" : [ "obj-3", 1 ]
				}

			}
, 			{
				"patchline" : 				{
					"destination" : [ "obj-3", 0 ],
					"source" : [ "obj-30", 0 ]
				}

			}
, 			{
				"patchline" : 				{
					"destination" : [ "obj-125", 1 ],
					"source" : [ "obj-34", 0 ]
				}

			}
, 			{
				"patchline" : 				{
					"destination" : [ "obj-11", 1 ],
					"order" : 0,
					"source" : [ "obj-35", 0 ]
				}

			}
, 			{
				"patchline" : 				{
					"destination" : [ "obj-11", 0 ],
					"order" : 1,
					"source" : [ "obj-35", 0 ]
				}

			}
, 			{
				"patchline" : 				{
					"destination" : [ "obj-4", 0 ],
					"source" : [ "obj-39", 0 ]
				}

			}
, 			{
				"patchline" : 				{
					"destination" : [ "obj-3", 0 ],
					"source" : [ "obj-4", 0 ]
				}

			}
, 			{
				"patchline" : 				{
					"destination" : [ "obj-4", 1 ],
					"source" : [ "obj-40", 1 ]
				}

			}
, 			{
				"patchline" : 				{
					"destination" : [ "obj-4", 1 ],
					"source" : [ "obj-40", 0 ]
				}

			}
, 			{
				"patchline" : 				{
					"destination" : [ "obj-43", 0 ],
					"source" : [ "obj-45", 0 ]
				}

			}
, 			{
				"patchline" : 				{
					"destination" : [ "obj-22", 0 ],
					"source" : [ "obj-46", 0 ]
				}

			}
, 			{
				"patchline" : 				{
					"destination" : [ "obj-32", 0 ],
					"source" : [ "obj-51", 0 ]
				}

			}
, 			{
				"patchline" : 				{
					"destination" : [ "obj-72", 0 ],
					"midpoints" : [ 468.055542, 276.439667, 304.888733, 276.439667 ],
					"source" : [ "obj-52", 0 ]
				}

			}
, 			{
				"patchline" : 				{
					"destination" : [ "obj-72", 1 ],
					"midpoints" : [ 522.777771, 276.439667, 383.388733, 276.439667 ],
					"source" : [ "obj-53", 0 ]
				}

			}
, 			{
				"patchline" : 				{
					"destination" : [ "obj-118", 1 ],
					"order" : 0,
					"source" : [ "obj-55", 0 ]
				}

			}
, 			{
				"patchline" : 				{
					"destination" : [ "obj-122", 0 ],
					"order" : 1,
					"source" : [ "obj-55", 0 ]
				}

			}
, 			{
				"patchline" : 				{
					"destination" : [ "obj-49", 0 ],
					"order" : 2,
					"source" : [ "obj-55", 0 ]
				}

			}
, 			{
				"patchline" : 				{
					"destination" : [ "obj-3", 1 ],
					"source" : [ "obj-6", 0 ]
				}

			}
, 			{
				"patchline" : 				{
					"destination" : [ "obj-3", 0 ],
					"source" : [ "obj-7", 0 ]
				}

			}
, 			{
				"patchline" : 				{
					"destination" : [ "obj-3", 0 ],
					"source" : [ "obj-8", 0 ]
				}

			}
, 			{
				"patchline" : 				{
					"destination" : [ "obj-11", 1 ],
					"order" : 0,
					"source" : [ "obj-84", 0 ]
				}

			}
, 			{
				"patchline" : 				{
					"destination" : [ "obj-11", 0 ],
					"order" : 1,
					"source" : [ "obj-84", 0 ]
				}

			}
, 			{
				"patchline" : 				{
					"destination" : [ "obj-84", 0 ],
					"source" : [ "obj-86", 0 ]
				}

			}
, 			{
				"patchline" : 				{
					"destination" : [ "obj-86", 0 ],
					"source" : [ "obj-89", 0 ]
				}

			}
, 			{
				"patchline" : 				{
					"destination" : [ "obj-3", 0 ],
					"source" : [ "obj-9", 0 ]
				}

			}
, 			{
				"patchline" : 				{
					"destination" : [ "obj-84", 0 ],
					"source" : [ "obj-91", 0 ]
				}

			}
, 			{
				"patchline" : 				{
					"destination" : [ "obj-84", 0 ],
					"source" : [ "obj-92", 0 ]
				}

			}
 ],
		"parameters" : 		{
			"obj-84" : [ "vst~[2]", "vst~[2]", 0 ],
			"obj-2::obj-7" : [ "live.gain~[3]", "live.gain~[2]", 0 ],
			"obj-2::obj-48::obj-8" : [ "vst~[1]", "vst~[1]", 0 ],
			"obj-2::obj-48::obj-6" : [ "vst~", "vst~", 0 ],
			"obj-2::obj-6" : [ "live.gain~[2]", "live.gain~[2]", 0 ]
		}
,
		"dependency_cache" : [ 			{
				"name" : "karmapoly.maxpat",
				"bootpath" : "~/Desktop/touch/lipp_performance_3/max/patchers",
				"patcherrelativepath" : ".",
				"type" : "JSON",
				"implicit" : 1
			}
, 			{
				"name" : "osc_out.maxpat",
				"bootpath" : "~/Desktop/touch/lipp_performance_3/max/patchers",
				"patcherrelativepath" : ".",
				"type" : "JSON",
				"implicit" : 1
			}
, 			{
				"name" : "trigger_audio.maxpat",
				"bootpath" : "~/Desktop/touch/lipp_performance_3/max/patchers",
				"patcherrelativepath" : ".",
				"type" : "JSON",
				"implicit" : 1
			}
, 			{
				"name" : "hello_sam.wav",
				"bootpath" : "~/Desktop/touch/lipp_performance_3/audio_samples",
				"patcherrelativepath" : "../../audio_samples",
				"type" : "WAVE",
				"implicit" : 1
			}
, 			{
				"name" : "247 echo.wav",
				"bootpath" : "~/Desktop/touch/lipp_performance_3/audio_samples",
				"patcherrelativepath" : "../../audio_samples",
				"type" : "WAVE",
				"implicit" : 1
			}
, 			{
				"name" : "error_tone.wav",
				"bootpath" : "~/Desktop/touch/lipp_performance_3/audio_samples",
				"patcherrelativepath" : "../../audio_samples",
				"type" : "WAVE",
				"implicit" : 1
			}
, 			{
				"name" : "recallibration.wav",
				"bootpath" : "~/Desktop/touch/lipp_performance_3/audio_samples",
				"patcherrelativepath" : "../../audio_samples",
				"type" : "WAVE",
				"implicit" : 1
			}
, 			{
				"name" : "elevator.wav",
				"bootpath" : "~/Desktop/touch/lipp_performance_3/audio_samples",
				"patcherrelativepath" : "../../audio_samples",
				"type" : "WAVE",
				"implicit" : 1
			}
, 			{
				"name" : "random_sample.maxpat",
				"bootpath" : "~/Desktop/touch/lipp_performance_3/max/patchers",
				"patcherrelativepath" : ".",
				"type" : "JSON",
				"implicit" : 1
			}
, 			{
				"name" : "EchoBoy.maxsnap",
				"bootpath" : "~/Documents/Max 7/Snapshots",
				"patcherrelativepath" : "../../../../../Documents/Max 7/Snapshots",
				"type" : "mx@s",
				"implicit" : 1
			}
, 			{
				"name" : "ValhallaShimmer.maxsnap",
				"bootpath" : "~/Documents/Max 7/Snapshots",
				"patcherrelativepath" : "../../../../../Documents/Max 7/Snapshots",
				"type" : "mx@s",
				"implicit" : 1
			}
, 			{
				"name" : "greetings_traveller.mp3",
				"bootpath" : "~/Desktop/touch/lipp_performance_3/audio_samples",
				"patcherrelativepath" : "../../audio_samples",
				"type" : "Mp3 ",
				"implicit" : 1
			}
, 			{
				"name" : "karma~.mxe",
				"type" : "iLaF"
			}
 ],
		"autosave" : 0,
		"styles" : [ 			{
				"name" : "AudioStatus_Menu",
				"default" : 				{
					"bgfillcolor" : 					{
						"type" : "color",
						"color" : [ 0.294118, 0.313726, 0.337255, 1 ],
						"color1" : [ 0.454902, 0.462745, 0.482353, 0.0 ],
						"color2" : [ 0.290196, 0.309804, 0.301961, 1.0 ],
						"angle" : 270.0,
						"proportion" : 0.39,
						"autogradient" : 0
					}

				}
,
				"parentstyle" : "",
				"multi" : 0
			}
, 			{
				"name" : "ksliderWhite",
				"default" : 				{
					"color" : [ 1.0, 1.0, 1.0, 1.0 ]
				}
,
				"parentstyle" : "",
				"multi" : 0
			}
, 			{
				"name" : "newobjBlue-1",
				"default" : 				{
					"accentcolor" : [ 0.317647, 0.654902, 0.976471, 1.0 ]
				}
,
				"parentstyle" : "",
				"multi" : 0
			}
, 			{
				"name" : "newobjBrown-1",
				"default" : 				{
					"accentcolor" : [ 0.654902, 0.572549, 0.376471, 1.0 ]
				}
,
				"parentstyle" : "",
				"multi" : 0
			}
, 			{
				"name" : "newobjCyan-1",
				"default" : 				{
					"accentcolor" : [ 0.029546, 0.773327, 0.821113, 1.0 ]
				}
,
				"parentstyle" : "",
				"multi" : 0
			}
, 			{
				"name" : "newobjGreen-1",
				"default" : 				{
					"accentcolor" : [ 0.0, 0.533333, 0.168627, 1.0 ]
				}
,
				"parentstyle" : "",
				"multi" : 0
			}
, 			{
				"name" : "newobjYellow-1",
				"default" : 				{
					"accentcolor" : [ 0.82517, 0.78181, 0.059545, 1.0 ],
					"fontsize" : [ 12.059008 ]
				}
,
				"parentstyle" : "",
				"multi" : 0
			}
, 			{
				"name" : "numberGold-1",
				"default" : 				{
					"accentcolor" : [ 0.764706, 0.592157, 0.101961, 1.0 ]
				}
,
				"parentstyle" : "",
				"multi" : 0
			}
, 			{
				"name" : "rsliderGold",
				"default" : 				{
					"bgcolor" : [ 0.764706, 0.592157, 0.101961, 1.0 ],
					"color" : [ 0.646639, 0.821777, 0.854593, 1.0 ]
				}
,
				"parentstyle" : "",
				"multi" : 0
			}
 ]
	}

}
