{
	"patcher" : 	{
		"fileversion" : 1,
		"appversion" : 		{
			"major" : 8,
			"minor" : 0,
			"revision" : 8,
			"architecture" : "x64",
			"modernui" : 1
		}
,
		"classnamespace" : "box",
		"rect" : [ 34.0, 77.0, 1468.0, 713.0 ],
		"bglocked" : 0,
		"openinpresentation" : 0,
		"default_fontsize" : 12.0,
		"default_fontface" : 0,
		"default_fontname" : "Arial",
		"gridonopen" : 1,
		"gridsize" : [ 15.0, 15.0 ],
		"gridsnaponopen" : 1,
		"objectsnaponopen" : 1,
		"statusbarvisible" : 2,
		"toolbarvisible" : 1,
		"lefttoolbarpinned" : 0,
		"toptoolbarpinned" : 0,
		"righttoolbarpinned" : 0,
		"bottomtoolbarpinned" : 0,
		"toolbars_unpinned_last_save" : 0,
		"tallnewobj" : 0,
		"boxanimatetime" : 200,
		"enablehscroll" : 1,
		"enablevscroll" : 1,
		"devicewidth" : 0.0,
		"description" : "",
		"digest" : "",
		"tags" : "",
		"style" : "",
		"subpatcher_template" : "",
		"boxes" : [ 			{
				"box" : 				{
					"id" : "obj-19",
					"maxclass" : "newobj",
					"numinlets" : 1,
					"numoutlets" : 1,
					"outlettype" : [ "int" ],
					"patching_rect" : [ 315.5, 190.0, 22.0, 22.0 ],
					"text" : "t 6"
				}

			}
, 			{
				"box" : 				{
					"id" : "obj-17",
					"maxclass" : "newobj",
					"numinlets" : 1,
					"numoutlets" : 1,
					"outlettype" : [ "int" ],
					"patching_rect" : [ 194.0, 175.0, 22.0, 22.0 ],
					"text" : "t 2"
				}

			}
, 			{
				"box" : 				{
					"id" : "obj-16",
					"maxclass" : "newobj",
					"numinlets" : 1,
					"numoutlets" : 1,
					"outlettype" : [ "int" ],
					"patching_rect" : [ 291.5, 175.0, 22.0, 22.0 ],
					"text" : "t 5"
				}

			}
, 			{
				"box" : 				{
					"id" : "obj-15",
					"maxclass" : "newobj",
					"numinlets" : 1,
					"numoutlets" : 1,
					"outlettype" : [ "int" ],
					"patching_rect" : [ 259.0, 169.0, 22.0, 22.0 ],
					"text" : "t 4"
				}

			}
, 			{
				"box" : 				{
					"id" : "obj-14",
					"maxclass" : "newobj",
					"numinlets" : 1,
					"numoutlets" : 1,
					"outlettype" : [ "int" ],
					"patching_rect" : [ 226.0, 165.0, 22.0, 22.0 ],
					"text" : "t 3"
				}

			}
, 			{
				"box" : 				{
					"id" : "obj-13",
					"maxclass" : "newobj",
					"numinlets" : 1,
					"numoutlets" : 1,
					"outlettype" : [ "bang" ],
					"patching_rect" : [ 460.0, 156.0, 22.0, 22.0 ],
					"text" : "t b"
				}

			}
, 			{
				"box" : 				{
					"id" : "obj-12",
					"maxclass" : "message",
					"numinlets" : 2,
					"numoutlets" : 1,
					"outlettype" : [ "" ],
					"patching_rect" : [ 499.0, 209.0, 41.0, 22.0 ],
					"text" : "pause"
				}

			}
, 			{
				"box" : 				{
					"id" : "obj-1",
					"maxclass" : "newobj",
					"numinlets" : 1,
					"numoutlets" : 1,
					"outlettype" : [ "int" ],
					"patching_rect" : [ 170.0, 169.0, 22.0, 22.0 ],
					"text" : "t 1"
				}

			}
, 			{
				"box" : 				{
					"id" : "obj-3",
					"maxclass" : "newobj",
					"numinlets" : 1,
					"numoutlets" : 0,
					"patching_rect" : [ 340.0, 768.0, 117.0, 22.0 ],
					"text" : "send~ trigger_audio"
				}

			}
, 			{
				"box" : 				{
					"id" : "obj-40",
					"maxclass" : "message",
					"numinlets" : 2,
					"numoutlets" : 1,
					"outlettype" : [ "" ],
					"patching_rect" : [ 559.0, 209.0, 51.0, 22.0 ],
					"text" : "resume"
				}

			}
, 			{
				"box" : 				{
					"clipheight" : 43.0,
					"data" : 					{
						"clips" : [ 							{
								"absolutepath" : "04_Technical_difficulties.wav",
								"filename" : "04_Technical_difficulties.wav",
								"filekind" : "audiofile",
								"selection" : [ 0.0, 1.0 ],
								"loop" : 0,
								"content_state" : 								{
									"originaltempo" : [ 120.0 ],
									"basictuning" : [ 440 ],
									"originallengthms" : [ 0.0 ],
									"pitchcorrection" : [ 0 ],
									"formant" : [ 1.0 ],
									"followglobaltempo" : [ 0 ],
									"quality" : [ "basic" ],
									"timestretch" : [ 0 ],
									"formantcorrection" : [ 0 ],
									"slurtime" : [ 0.0 ],
									"mode" : [ "basic" ],
									"speed" : [ 1.0 ],
									"play" : [ 0 ],
									"pitchshift" : [ 1.0 ],
									"originallength" : [ 0.0, "ticks" ]
								}

							}
, 							{
								"absolutepath" : "247 echo.wav",
								"filename" : "247 echo.wav",
								"filekind" : "audiofile",
								"selection" : [ 0.0, 1.0 ],
								"loop" : 1,
								"content_state" : 								{
									"originaltempo" : [ 120.0 ],
									"basictuning" : [ 440 ],
									"originallengthms" : [ 0.0 ],
									"pitchcorrection" : [ 0 ],
									"formant" : [ 1.0 ],
									"followglobaltempo" : [ 0 ],
									"quality" : [ "basic" ],
									"timestretch" : [ 0 ],
									"formantcorrection" : [ 0 ],
									"slurtime" : [ 0.0 ],
									"mode" : [ "basic" ],
									"speed" : [ 1.0 ],
									"play" : [ 0 ],
									"pitchshift" : [ 1.0 ],
									"originallength" : [ 0.0, "ticks" ]
								}

							}
, 							{
								"absolutepath" : "09_alien_contact-1.wav",
								"filename" : "09_alien_contact-1.wav",
								"filekind" : "audiofile",
								"selection" : [ 0.0, 1.0 ],
								"loop" : 0,
								"content_state" : 								{
									"originaltempo" : [ 120.0 ],
									"basictuning" : [ 440 ],
									"originallengthms" : [ 0.0 ],
									"pitchcorrection" : [ 0 ],
									"formant" : [ 1.0 ],
									"followglobaltempo" : [ 0 ],
									"quality" : [ "basic" ],
									"timestretch" : [ 0 ],
									"formantcorrection" : [ 0 ],
									"slurtime" : [ 0.0 ],
									"mode" : [ "basic" ],
									"speed" : [ 1.0 ],
									"play" : [ 0 ],
									"pitchshift" : [ 1.0 ],
									"originallength" : [ 0.0, "ticks" ]
								}

							}
, 							{
								"absolutepath" : "10_Technical_difficulties_Recallib_needed.wav",
								"filename" : "10_Technical_difficulties_Recallib_needed.wav",
								"filekind" : "audiofile",
								"selection" : [ 0.0, 1.0 ],
								"loop" : 0,
								"content_state" : 								{
									"originaltempo" : [ 120.0 ],
									"basictuning" : [ 440 ],
									"originallengthms" : [ 0.0 ],
									"pitchcorrection" : [ 0 ],
									"formant" : [ 1.0 ],
									"followglobaltempo" : [ 0 ],
									"quality" : [ "basic" ],
									"timestretch" : [ 0 ],
									"formantcorrection" : [ 0 ],
									"slurtime" : [ 0.0 ],
									"mode" : [ "basic" ],
									"speed" : [ 1.0 ],
									"play" : [ 0 ],
									"pitchshift" : [ 1.0 ],
									"originallength" : [ 0.0, "ticks" ]
								}

							}
, 							{
								"absolutepath" : "recallibration.wav",
								"filename" : "recallibration.wav",
								"filekind" : "audiofile",
								"selection" : [ 0.0, 1.0 ],
								"loop" : 0,
								"content_state" : 								{
									"originaltempo" : [ 120.0 ],
									"basictuning" : [ 440 ],
									"originallengthms" : [ 0.0 ],
									"pitchcorrection" : [ 0 ],
									"formant" : [ 1.0 ],
									"followglobaltempo" : [ 0 ],
									"quality" : [ "basic" ],
									"timestretch" : [ 0 ],
									"formantcorrection" : [ 0 ],
									"slurtime" : [ 0.0 ],
									"mode" : [ "basic" ],
									"speed" : [ 1.0 ],
									"play" : [ 0 ],
									"pitchshift" : [ 1.0 ],
									"originallength" : [ 0.0, "ticks" ]
								}

							}
, 							{
								"absolutepath" : "elevator.wav",
								"filename" : "elevator.wav",
								"filekind" : "audiofile",
								"selection" : [ 0.0, 1.0 ],
								"loop" : 0,
								"content_state" : 								{
									"originaltempo" : [ 120.0 ],
									"basictuning" : [ 440 ],
									"originallengthms" : [ 0.0 ],
									"pitchcorrection" : [ 0 ],
									"formant" : [ 1.0 ],
									"followglobaltempo" : [ 0 ],
									"quality" : [ "basic" ],
									"timestretch" : [ 0 ],
									"formantcorrection" : [ 0 ],
									"slurtime" : [ 0.0 ],
									"mode" : [ "basic" ],
									"speed" : [ 1.0 ],
									"play" : [ 0 ],
									"pitchshift" : [ 1.0 ],
									"originallength" : [ 0.0, "ticks" ]
								}

							}
 ]
					}
,
					"id" : "obj-18",
					"maxclass" : "playlist~",
					"numinlets" : 1,
					"numoutlets" : 5,
					"outlettype" : [ "signal", "signal", "signal", "", "dictionary" ],
					"patching_rect" : [ 181.0, 307.0, 261.0, 264.0 ]
				}

			}
, 			{
				"box" : 				{
					"id" : "obj-5",
					"maxclass" : "newobj",
					"numinlets" : 10,
					"numoutlets" : 10,
					"outlettype" : [ "", "", "", "", "", "", "", "", "", "" ],
					"patching_rect" : [ 185.599990999999989, 97.599997999999999, 145.0, 22.0 ],
					"text" : "route 0 3 4 7 8 9 10 11 12"
				}

			}
, 			{
				"box" : 				{
					"id" : "obj-2",
					"maxclass" : "newobj",
					"numinlets" : 0,
					"numoutlets" : 1,
					"outlettype" : [ "" ],
					"patching_rect" : [ 266.599976000000026, 29.200004999999997, 31.0, 22.0 ],
					"text" : "r s1"
				}

			}
 ],
		"lines" : [ 			{
				"patchline" : 				{
					"destination" : [ "obj-18", 0 ],
					"source" : [ "obj-1", 0 ]
				}

			}
, 			{
				"patchline" : 				{
					"destination" : [ "obj-18", 0 ],
					"source" : [ "obj-12", 0 ]
				}

			}
, 			{
				"patchline" : 				{
					"destination" : [ "obj-12", 0 ],
					"source" : [ "obj-13", 0 ]
				}

			}
, 			{
				"patchline" : 				{
					"destination" : [ "obj-18", 0 ],
					"source" : [ "obj-14", 0 ]
				}

			}
, 			{
				"patchline" : 				{
					"destination" : [ "obj-18", 0 ],
					"source" : [ "obj-15", 0 ]
				}

			}
, 			{
				"patchline" : 				{
					"destination" : [ "obj-18", 0 ],
					"source" : [ "obj-16", 0 ]
				}

			}
, 			{
				"patchline" : 				{
					"destination" : [ "obj-18", 0 ],
					"source" : [ "obj-17", 0 ]
				}

			}
, 			{
				"patchline" : 				{
					"destination" : [ "obj-3", 0 ],
					"source" : [ "obj-18", 0 ]
				}

			}
, 			{
				"patchline" : 				{
					"destination" : [ "obj-18", 0 ],
					"source" : [ "obj-19", 0 ]
				}

			}
, 			{
				"patchline" : 				{
					"destination" : [ "obj-5", 0 ],
					"source" : [ "obj-2", 0 ]
				}

			}
, 			{
				"patchline" : 				{
					"destination" : [ "obj-18", 0 ],
					"source" : [ "obj-40", 0 ]
				}

			}
, 			{
				"patchline" : 				{
					"destination" : [ "obj-1", 0 ],
					"source" : [ "obj-5", 1 ]
				}

			}
, 			{
				"patchline" : 				{
					"destination" : [ "obj-13", 0 ],
					"source" : [ "obj-5", 9 ]
				}

			}
, 			{
				"patchline" : 				{
					"destination" : [ "obj-13", 0 ],
					"source" : [ "obj-5", 2 ]
				}

			}
, 			{
				"patchline" : 				{
					"destination" : [ "obj-13", 0 ],
					"source" : [ "obj-5", 0 ]
				}

			}
, 			{
				"patchline" : 				{
					"destination" : [ "obj-14", 0 ],
					"source" : [ "obj-5", 5 ]
				}

			}
, 			{
				"patchline" : 				{
					"destination" : [ "obj-15", 0 ],
					"source" : [ "obj-5", 6 ]
				}

			}
, 			{
				"patchline" : 				{
					"destination" : [ "obj-16", 0 ],
					"source" : [ "obj-5", 7 ]
				}

			}
, 			{
				"patchline" : 				{
					"destination" : [ "obj-17", 0 ],
					"source" : [ "obj-5", 4 ]
				}

			}
, 			{
				"patchline" : 				{
					"destination" : [ "obj-19", 0 ],
					"source" : [ "obj-5", 8 ]
				}

			}
 ]
	}

}
